<svg width="100%" viewBox="0 0 680 440" role="img" xmlns="http://www.w3.org/2000/svg"><title>Repo tide-pool ecosystem</title><desc>Each creature is one of rohan1402's repositories, sized by stars, drifting in a predator-prey simulation that re-runs daily.</desc><rect x="0" y="0" width="680" height="440" fill="#07232f"/><rect x="0" y="0" width="680" height="150" fill="#0c3243"/><rect x="0" y="150" width="680" height="140" fill="#0a2c3b"/><rect x="0" y="290" width="680" height="150" fill="#072430"/><polygon points="120,0 160,0 90,440 30,440" fill="#ffffff" opacity="0.04"><animate attributeName="opacity" values="0.02;0.07;0.02" dur="7s" repeatCount="indefinite"/></polygon><polygon points="430,0 470,0 520,440 450,440" fill="#ffffff" opacity="0.04"><animate attributeName="opacity" values="0.06;0.02;0.06" dur="9s" repeatCount="indefinite"/></polygon><path d="M0,420 Q120,388 260,408 T520,402 T680,414 L680,440 L0,440 Z" fill="#06202b"/><ellipse cx="180" cy="424" rx="26" ry="8" fill="#0a2e3c"/><ellipse cx="470" cy="428" rx="34" ry="9" fill="#0a2e3c"/><ellipse cx="610" cy="422" rx="20" ry="6" fill="#0a2e3c"/><g><circle cx="250" cy="392" r="2.2" fill="#bfeaff" opacity="0.5"><animate attributeName="cy" values="396;-10" dur="9s" begin="0s" repeatCount="indefinite"/><animate attributeName="opacity" values="0;0.6;0" dur="9s" begin="0s" repeatCount="indefinite"/></circle><circle cx="255" cy="392" r="2.2" fill="#bfeaff" opacity="0.5"><animate attributeName="cy" values="396;-10" dur="11s" begin="2s" repeatCount="indefinite"/><animate attributeName="opacity" values="0;0.6;0" dur="11s" begin="2s" repeatCount="indefinite"/></circle><circle cx="560" cy="392" r="2.2" fill="#bfeaff" opacity="0.5"><animate attributeName="cy" values="396;-10" dur="10s" begin="1s" repeatCount="indefinite"/><animate attributeName="opacity" values="0;0.6;0" dur="10s" begin="1s" repeatCount="indefinite"/></circle><circle cx="100" cy="392" r="2.2" fill="#bfeaff" opacity="0.5"><animate attributeName="cy" values="396;-10" dur="12s" begin="3s" repeatCount="indefinite"/><animate attributeName="opacity" values="0;0.6;0" dur="12s" begin="3s" repeatCount="indefinite"/></circle><circle cx="390" cy="392" r="2.2" fill="#bfeaff" opacity="0.5"><animate attributeName="cy" values="396;-10" dur="10.5s" begin="1.5s" repeatCount="indefinite"/><animate attributeName="opacity" values="0;0.6;0" dur="10.5s" begin="1.5s" repeatCount="indefinite"/></circle></g><g opacity="0.7"><circle cx="380" cy="120" r="3" fill="#7fe9c8"><animate attributeName="cx" values="380;395;380" dur="8s" repeatCount="indefinite"/></circle><circle cx="300" cy="330" r="2.5" fill="#7fe9c8"><animate attributeName="cx" values="300;288;300" dur="7s" repeatCount="indefinite"/></circle><circle cx="600" cy="180" r="2.5" fill="#7fe9c8"><animate attributeName="cy" values="180;168;180" dur="6s" repeatCount="indefinite"/></circle><circle cx="60" cy="200" r="2" fill="#7fe9c8"><animate attributeName="cy" values="200;212;200" dur="9s" repeatCount="indefinite"/></circle></g><g transform="translate(332,244)"><g><animateTransform attributeName="transform" type="translate" values="0,0; 0,-10; 0,0" dur="5s" repeatCount="indefinite"/><circle cx="0" cy="0" r="24" fill="#7F77DD" opacity="0.25"><animate attributeName="r" values="22;31;22" dur="3.5s" repeatCount="indefinite"/><animate attributeName="opacity" values="0.28;0.08;0.28" dur="3.5s" repeatCount="indefinite"/></circle><circle cx="0" cy="0" r="17" fill="#8e87e6"/><circle cx="0" cy="-3" r="13" fill="#a9a3ee"/><circle cx="-5" cy="-1" r="2.6" fill="#2a2560"/><circle cx="5" cy="-1" r="2.6" fill="#2a2560"/></g></g><text x="332" y="286" text-anchor="middle" font-family="system-ui,sans-serif" font-size="12" font-weight="500" fill="#d8d4fb">rohan1402</text><text x="332" y="300" text-anchor="middle" font-family="system-ui,sans-serif" font-size="10.5" fill="#b0a9ee">the reef · home</text><g transform="translate(167,164)"><g><animateTransform attributeName="transform" type="translate" values="0,0; 6,-8; 0,0" dur="6.0s" repeatCount="indefinite"/><g><animateTransform attributeName="transform" type="rotate" values="-3.5 0 0; 3.5 0 0; -3.5 0 0" dur="4.4s" repeatCount="indefinite"/><path d="M-24.0,5.3 Q-28.0,24.0 -27.0,40.7" stroke="#b8451f" stroke-width="3.0" fill="none" stroke-linecap="round"/><path d="M0.0,5.3 Q-4.0,24.0 3.0,40.7" stroke="#b8451f" stroke-width="3.0" fill="none" stroke-linecap="round"/><path d="M24.0,5.3 Q20.0,24.0 21.0,40.7" stroke="#b8451f" stroke-width="3.0" fill="none" stroke-linecap="round"/></g><ellipse cx="0" cy="0" rx="33.4" ry="28.4" fill="#D85A30"/><ellipse cx="0" cy="-4.3" rx="33.4" ry="20.7" fill="#e8703f"/><circle cx="-10.4" cy="-2.7" r="3.7" fill="#3a140a"/><circle cx="10.4" cy="-2.7" r="3.7" fill="#3a140a"/><circle cx="-9.0" cy="-4.3" r="1.5" fill="#ffffff"/><circle cx="11.7" cy="-4.3" r="1.5" fill="#ffffff"/></g></g><g transform="translate(493,144)"><g><animateTransform attributeName="transform" type="translate" values="0,0; 6,-8; 0,0" dur="9.9s" repeatCount="indefinite"/><circle cx="0" cy="0" r="17.9" fill="#639922" opacity="0.16"><animate attributeName="r" values="15.9;20.0;15.9" dur="3.6s" repeatCount="indefinite"/><animate attributeName="opacity" values="0.18;0.05;0.18" dur="3.6s" repeatCount="indefinite"/></circle><g><animateTransform attributeName="transform" type="rotate" values="-3.5 0 0; 3.5 0 0; -3.5 0 0" dur="4.4s" repeatCount="indefinite"/><path d="M-10.9,2.4 Q-14.9,10.9 -13.9,18.5" stroke="#3b6d11" stroke-width="2.4" fill="none" stroke-linecap="round"/><path d="M0.0,2.4 Q-4.0,10.9 3.0,18.5" stroke="#3b6d11" stroke-width="2.4" fill="none" stroke-linecap="round"/><path d="M10.9,2.4 Q6.9,10.9 7.9,18.5" stroke="#3b6d11" stroke-width="2.4" fill="none" stroke-linecap="round"/></g><ellipse cx="0" cy="0" rx="15.2" ry="12.9" fill="#639922"/><ellipse cx="0" cy="-2.0" rx="15.2" ry="9.4" fill="#7bb336"/><circle cx="-4.7" cy="-1.2" r="2.6" fill="#1a3404"/><circle cx="4.7" cy="-1.2" r="2.6" fill="#1a3404"/><circle cx="-4.1" cy="-2.0" r="1.5" fill="#ffffff"/><circle cx="5.3" cy="-2.0" r="1.5" fill="#ffffff"/></g></g><g transform="translate(559,294)"><g><animateTransform attributeName="transform" type="translate" values="0,0; 8,-8; 0,0" dur="6.0s" repeatCount="indefinite"/><circle cx="0" cy="0" r="17.9" fill="#1D9E75" opacity="0.16"><animate attributeName="r" values="15.9;20.0;15.9" dur="3.6s" repeatCount="indefinite"/><animate attributeName="opacity" values="0.18;0.05;0.18" dur="3.6s" repeatCount="indefinite"/></circle><g><animateTransform attributeName="transform" type="rotate" values="-3.5 0 0; 3.5 0 0; -3.5 0 0" dur="5.3s" repeatCount="indefinite"/><path d="M-10.9,2.4 Q-14.9,10.9 -13.9,18.5" stroke="#0e6e51" stroke-width="2.4" fill="none" stroke-linecap="round"/><path d="M0.0,2.4 Q-4.0,10.9 3.0,18.5" stroke="#0e6e51" stroke-width="2.4" fill="none" stroke-linecap="round"/><path d="M10.9,2.4 Q6.9,10.9 7.9,18.5" stroke="#0e6e51" stroke-width="2.4" fill="none" stroke-linecap="round"/></g><ellipse cx="0" cy="0" rx="15.2" ry="12.9" fill="#1D9E75"/><ellipse cx="0" cy="-2.0" rx="15.2" ry="9.4" fill="#33b88c"/><circle cx="-4.7" cy="-1.2" r="2.6" fill="#06301f"/><circle cx="4.7" cy="-1.2" r="2.6" fill="#06301f"/><circle cx="-4.1" cy="-2.0" r="1.5" fill="#ffffff"/><circle cx="5.3" cy="-2.0" r="1.5" fill="#ffffff"/></g></g><g transform="translate(120,303)"><g><animateTransform attributeName="transform" type="translate" values="0,0; 10,-8; 0,0" dur="7.3s" repeatCount="indefinite"/><g><animateTransform attributeName="transform" type="rotate" values="-3.5 0 0; 3.5 0 0; -3.5 0 0" dur="6.2s" repeatCount="indefinite"/><path d="M-10.9,2.4 Q-14.9,10.9 -13.9,18.5" stroke="#3b6d11" stroke-width="2.4" fill="none" stroke-linecap="round"/><path d="M0.0,2.4 Q-4.0,10.9 3.0,18.5" stroke="#3b6d11" stroke-width="2.4" fill="none" stroke-linecap="round"/><path d="M10.9,2.4 Q6.9,10.9 7.9,18.5" stroke="#3b6d11" stroke-width="2.4" fill="none" stroke-linecap="round"/></g><ellipse cx="0" cy="0" rx="15.2" ry="12.9" fill="#639922"/><ellipse cx="0" cy="-2.0" rx="15.2" ry="9.4" fill="#7bb336"/><circle cx="-4.7" cy="-1.2" r="2.6" fill="#1a3404"/><circle cx="4.7" cy="-1.2" r="2.6" fill="#1a3404"/><circle cx="-4.1" cy="-2.0" r="1.5" fill="#ffffff"/><circle cx="5.3" cy="-2.0" r="1.5" fill="#ffffff"/></g></g><g transform="translate(437,350)"><g><animateTransform attributeName="transform" type="translate" values="0,0; 6,-8; 0,0" dur="8.6s" repeatCount="indefinite"/><g><animateTransform attributeName="transform" type="rotate" values="-3.5 0 0; 3.5 0 0; -3.5 0 0" dur="4.4s" repeatCount="indefinite"/><path d="M-10.9,2.4 Q-14.9,10.9 -13.9,18.5" stroke="#0e6e51" stroke-width="2.4" fill="none" stroke-linecap="round"/><path d="M0.0,2.4 Q-4.0,10.9 3.0,18.5" stroke="#0e6e51" stroke-width="2.4" fill="none" stroke-linecap="round"/><path d="M10.9,2.4 Q6.9,10.9 7.9,18.5" stroke="#0e6e51" stroke-width="2.4" fill="none" stroke-linecap="round"/></g><ellipse cx="0" cy="0" rx="15.2" ry="12.9" fill="#1D9E75"/><ellipse cx="0" cy="-2.0" rx="15.2" ry="9.4" fill="#33b88c"/><circle cx="-4.7" cy="-1.2" r="2.6" fill="#06301f"/><circle cx="4.7" cy="-1.2" r="2.6" fill="#06301f"/><circle cx="-4.1" cy="-2.0" r="1.5" fill="#ffffff"/><circle cx="5.3" cy="-2.0" r="1.5" fill="#ffffff"/></g></g><g transform="translate(610,217)"><g><animateTransform attributeName="transform" type="translate" values="0,0; 8,-8; 0,0" dur="7.3s" repeatCount="indefinite"/><circle cx="0" cy="0" r="16.5" fill="#EF9F27" opacity="0.16"><animate attributeName="r" values="14.7;18.5;14.7" dur="3.6s" repeatCount="indefinite"/><animate attributeName="opacity" values="0.18;0.05;0.18" dur="3.6s" repeatCount="indefinite"/></circle><g><animateTransform attributeName="transform" type="rotate" values="-3.5 0 0; 3.5 0 0; -3.5 0 0" dur="5.3s" repeatCount="indefinite"/><path d="M-10.1,2.2 Q-14.1,10.1 -13.1,17.1" stroke="#b9760f" stroke-width="2.4" fill="none" stroke-linecap="round"/><path d="M0.0,2.2 Q-4.0,10.1 3.0,17.1" stroke="#b9760f" stroke-width="2.4" fill="none" stroke-linecap="round"/><path d="M10.1,2.2 Q6.1,10.1 7.1,17.1" stroke="#b9760f" stroke-width="2.4" fill="none" stroke-linecap="round"/></g><ellipse cx="0" cy="0" rx="14.0" ry="11.9" fill="#EF9F27"/><ellipse cx="0" cy="-1.8" rx="14.0" ry="8.7" fill="#f6b449"/><circle cx="-4.3" cy="-1.1" r="2.6" fill="#3a2606"/><circle cx="4.3" cy="-1.1" r="2.6" fill="#3a2606"/><circle cx="-3.8" cy="-1.8" r="1.5" fill="#ffffff"/><circle cx="4.9" cy="-1.8" r="1.5" fill="#ffffff"/></g></g><g transform="translate(297,347)"><g><animateTransform attributeName="transform" type="translate" values="0,0; 10,-8; 0,0" dur="8.6s" repeatCount="indefinite"/><circle cx="0" cy="0" r="16.5" fill="#D85A30" opacity="0.16"><animate attributeName="r" values="14.7;18.5;14.7" dur="3.6s" repeatCount="indefinite"/><animate attributeName="opacity" values="0.18;0.05;0.18" dur="3.6s" repeatCount="indefinite"/></circle><g><animateTransform attributeName="transform" type="rotate" values="-3.5 0 0; 3.5 0 0; -3.5 0 0" dur="6.2s" repeatCount="indefinite"/><path d="M-10.1,2.2 Q-14.1,10.1 -13.1,17.1" stroke="#b8451f" stroke-width="2.4" fill="none" stroke-linecap="round"/><path d="M0.0,2.2 Q-4.0,10.1 3.0,17.1" stroke="#b8451f" stroke-width="2.4" fill="none" stroke-linecap="round"/><path d="M10.1,2.2 Q6.1,10.1 7.1,17.1" stroke="#b8451f" stroke-width="2.4" fill="none" stroke-linecap="round"/></g><ellipse cx="0" cy="0" rx="14.0" ry="11.9" fill="#D85A30"/><ellipse cx="0" cy="-1.8" rx="14.0" ry="8.7" fill="#e8703f"/><circle cx="-4.3" cy="-1.1" r="2.6" fill="#3a140a"/><circle cx="4.3" cy="-1.1" r="2.6" fill="#3a140a"/><circle cx="-3.8" cy="-1.8" r="1.5" fill="#ffffff"/><circle cx="4.9" cy="-1.8" r="1.5" fill="#ffffff"/></g></g><text x="167" y="219" text-anchor="middle" font-family="system-ui,sans-serif" font-size="13" font-weight="500" fill="#ffd9c7">Sentiment-Analysis-of-IMDB-Ratings</text><text x="167" y="234" text-anchor="middle" font-family="system-ui,sans-serif" font-size="11" fill="#f0a987">★ 1 · apex predator</text><text x="493" y="181" text-anchor="middle" font-family="system-ui,sans-serif" font-size="13" font-weight="500" fill="#d8eeb0">nexus</text><text x="493" y="196" text-anchor="middle" font-family="system-ui,sans-serif" font-size="11" fill="#9ec45a">new · grazer</text><text x="559" y="331" text-anchor="middle" font-family="system-ui,sans-serif" font-size="13" font-weight="500" fill="#bff0dc">patchwork-demo</text><text x="559" y="346" text-anchor="middle" font-family="system-ui,sans-serif" font-size="11" fill="#73c9a5">new · grazer</text><text x="120" y="341" text-anchor="middle" font-family="system-ui,sans-serif" font-size="13" font-weight="500" fill="#d8eeb0">agentically</text><text x="120" y="356" text-anchor="middle" font-family="system-ui,sans-serif" font-size="11" fill="#9ec45a">new · grazer</text><text x="437" y="387" text-anchor="middle" font-family="system-ui,sans-serif" font-size="13" font-weight="500" fill="#bff0dc">f1-race-simulator</text><text x="437" y="402" text-anchor="middle" font-family="system-ui,sans-serif" font-size="11" fill="#73c9a5">new · grazer</text><text x="610" y="253" text-anchor="middle" font-family="system-ui,sans-serif" font-size="13" font-weight="500" fill="#ffe6bd">rohan1402.github.io</text><text x="610" y="268" text-anchor="middle" font-family="system-ui,sans-serif" font-size="11" fill="#e6bc73">new · predator</text><text x="297" y="383" text-anchor="middle" font-family="system-ui,sans-serif" font-size="13" font-weight="500" fill="#ffd9c7">lyzr-niaho-compliance-agent</text><text x="297" y="398" text-anchor="middle" font-family="system-ui,sans-serif" font-size="11" fill="#f0a987">new · predator</text><rect x="18" y="18" width="232" height="58" rx="10" fill="#04161e" opacity="0.78"/><circle cx="36" cy="38" r="5" fill="#D85A30"/><text x="48" y="42" font-family="system-ui,sans-serif" font-size="11.5" fill="#cfe9f2">warm = predator (most-starred)</text><circle cx="36" cy="58" r="5" fill="#1D9E75"/><text x="48" y="62" font-family="system-ui,sans-serif" font-size="11.5" fill="#cfe9f2">cool = grazer (newer / smaller)</text><text x="662" y="34" text-anchor="end" font-family="system-ui,sans-serif" font-size="11" fill="#5d8497">tick 11 · re-simulated daily</text></svg>